<svg width="120" height="120" viewBox="0 0 120 120" fill="none" xmlns="http://www.w3.org/2000/svg">
<path d="M47.8828 1.17612C24.5859 5.7237 5.81249 24.469 1.21195 47.6956C-7.24899 91.5237 32.0791 124.196 61.8682 119.578C71.5221 118.077 76.2612 106.779 71.8291 98.0862C66.4174 87.4432 74.1488 75.0237 86.1026 75.0237H104.782C113.175 75.0237 119.97 68.0885 119.993 59.7167C119.883 22.7651 86.2734 -6.30208 47.8828 1.17612ZM22.5 75.0003C18.3539 75.0003 15 71.6464 15 67.5003C15 63.3542 18.3539 59.9932 22.2891 59.9932C26.2242 59.9932 29.7891 63.3471 29.7891 67.2823C29.7891 71.6487 26.6484 75.0003 22.5 75.0003ZM30 45.0003C25.8539 45.0003 22.5 41.6464 22.5 37.5003C22.5 33.3542 25.8539 30.0003 30 30.0003C34.1461 30.0003 37.5 33.3542 37.5 37.5003C37.5 41.6464 34.1484 45.0003 30 45.0003ZM60 30.0003C55.8539 30.0003 52.5 26.6464 52.5 22.5003C52.5 18.3542 55.8516 15.0096 60 15.0096C64.1484 15.0096 67.5 18.3635 67.5 22.5096C67.5 26.6557 64.1484 30.0003 60 30.0003ZM90 45.0003C85.8539 45.0003 82.5 41.6464 82.5 37.5003C82.5 33.3542 85.8539 30.0003 90 30.0003C94.1461 30.0003 97.5 33.3542 97.5 37.5003C97.5 41.6464 94.1484 45.0003 90 45.0003Z" fill="#2A3638"/>
</svg>
