<svg width="120" height="120" viewBox="0 0 120 120" fill="none" xmlns="http://www.w3.org/2000/svg">
<path d="M117.107 94.5703L85.4726 50.3906V15H87.3744C90.9235 15 93.5619 12.4805 93.5619 9.375L93.5619 5.625C93.5619 2.51953 90.6824 0 87.3744 0H32.1423C28.6066 0 25.7164 2.51953 25.7164 5.625L25.7163 9.375C25.7163 12.4805 28.5958 15 31.9038 15H33.8056L34.2851 50.3906L2.89226 94.5703C-4.95059 105.609 4.08959 120 18.9878 120H101.006C115.901 120 124.955 105.586 117.107 94.5703ZM36.7226 75L49.6199 56.8055C50.8387 55.6172 51.4012 54.0938 51.4012 52.5L51.4186 15H68.5588L68.5427 52.5C68.5427 54.1113 69.1454 55.6055 70.1164 56.8078L83.0083 75H36.7226Z" fill="#2A3638"/>
</svg>
