<svg width="120" height="120" viewBox="0 0 120 120" fill="none" xmlns="http://www.w3.org/2000/svg">
<path d="M46.875 88.125L35.3367 84.2789C33.6284 83.7084 33.6284 81.2906 35.3367 80.7211L46.875 76.875L50.7211 65.3367C51.2916 63.6284 53.7094 63.6284 54.2789 65.3367L58.125 76.875L69.6633 80.7211C71.3716 81.2916 71.3716 83.7094 69.6633 84.2789L58.125 88.125L56.25 97.5H105L84.7547 50.25C83.2969 46.875 83.1562 43.0781 84.3281 39.5859L97.5 0L53.5312 25.1484C48 28.3125 43.3828 33.1406 41.0156 39L15 97.5H48.75L46.875 88.125ZM54.1875 40.4062L60 37.5L62.9109 31.6781C63.2571 30.987 64.2422 30.987 64.5881 31.6781L67.5 37.5L73.3219 40.4109C74.013 40.7571 74.013 41.7422 73.3219 42.0881L67.5 45L64.5891 50.8219C64.2429 51.513 63.2578 51.513 62.9119 50.8219L60 45L54.1875 42.0938C53.4844 41.7422 53.4844 40.7578 54.1875 40.4062ZM116.25 105H3.75C1.67906 105 0 106.688 0 108.75C0 114.961 5.03672 120 11.25 120H108.75C114.963 120 120 114.963 120 108.75C120 106.688 118.312 105 116.25 105Z" fill="#2A3638"/>
</svg>
